<svg width="171" height="159" xmlns="http://www.w3.org/2000/svg" xmlns:xlink="http://www.w3.org/1999/xlink" xml:space="preserve" overflow="hidden"><g transform="translate(-109 -491)"><path d="M1874.94 158.213C1874.94 115.176 1909.83 80.2871 1952.87 80.2871 1995.91 80.2871 2030.79 115.176 2030.79 158.213 2030.79 201.25 1995.91 236.139 1952.87 236.139 1909.83 236.139 1874.94 201.25 1874.94 158.213Z" stroke="#383E42" stroke-width="2.55815" stroke-linecap="round" stroke-linejoin="round" stroke-miterlimit="10" fill="none" fill-rule="evenodd" transform="matrix(1.00577 0 0 1 -1775.17 412.287)"/><path d="M1975.08 97.3639 1976.34 99.2508C1975.85 99.5853 1975.36 99.9507 1974.81 100.256 1973.24 101.169 1972.54 102.386 1973.39 104.152 1974.01 105.387 1974.87 105.992 1975.99 105.992 1976.39 105.992 1976.83 105.917 1977.28 105.764 1977.96 105.551 1978.67 105.369 1979.64 105.126L1979.64 105.126C1979.06 106.874 1978.2 107.313 1977.27 107.313 1976.34 107.313 1975.35 106.869 1974.51 106.869 1974.35 106.869 1974.21 106.884 1974.07 106.92L1969.99 111.852 1962.09 110.239 1967.7 108.869C1969.41 105.308 1969.93 103.421 1969.57 101.99L1975.08 97.3639ZM1979.99 153.458 1979.99 153.458C1982.49 153.702 1982.78 155.985 1983.97 157.324 1982.29 159.971 1985.6 161.768 1985.2 164.507 1984.89 166.545 1986.7 168.951 1987.41 171.325 1987.96 173.028 1987.86 174.916 1987.06 176.559L1982.62 169.803C1984.3 164.598 1980.35 159.455 1979.99 153.458ZM1975.65 91.3087C1974.69 91.3087 1973.71 91.4562 1972.75 91.7942 1970.86 92.4339 1968.59 92.7993 1967.79 94.7462 1966.72 97.4256 1964.2 97.3947 1962.22 98.1546 1958.2 99.5853 1957.65 100.681 1959.37 104.486L1964.17 104.577 1962.89 109.021 1961.81 104.577 1958.72 110.421C1957.2 110.817 1955.45 110.847 1954.36 111.668 1952.38 113.221 1949.56 112.764 1947.88 114.773L1946.74 113.435 1945.2 115.504C1944.71 115.272 1944.71 114.382 1944.08 114.382 1943.89 114.382 1943.64 114.466 1943.31 114.682L1944.77 120.799C1943.77 121.7 1942.74 122.29 1941.78 122.29 1941.11 122.29 1940.46 122.007 1939.85 121.348 1938.4 119.826 1936.78 120.039 1935.36 119.856L1932.05 127.983C1933.31 130.102 1934.75 130.736 1936.27 130.736 1938.35 130.736 1940.59 129.546 1942.73 129.352L1943.58 126.674C1947.2 126.643 1947.2 126.643 1950.02 123.691L1951.73 125.244 1955.29 124.209 1962.39 133.827 1955.78 132.426 1955.78 132.426 1958.57 135.471C1961.38 135.227 1963.68 134.071 1964.85 131.119 1964.07 130.326 1963.45 129.596 1962.74 128.957 1961.12 127.587 1959.64 126.218 1960.22 122.87L1960.22 122.87C1961.67 125.062 1962.31 127.161 1963.62 127.739 1965.71 128.652 1965.89 130.144 1966.14 131.819 1966.29 132.913 1966.04 134.131 1966.4 135.136 1966.75 136.049 1967.7 136.718 1968.31 137.539 1968.47 137.754 1968.56 138.026 1968.56 138.301L1972.09 136.292C1971.21 134.743 1970.88 133.56 1972.94 133.56 1973.11 133.56 1973.28 133.567 1973.49 133.584 1973.88 134.983 1974.42 136.231 1974.47 137.479 1974.65 140.006 1976.65 141.071 1978.4 141.437 1978.57 141.476 1978.75 141.488 1978.92 141.488 1979.17 141.488 1979.42 141.464 1979.69 141.464 1980.21 141.464 1980.75 141.56 1981.3 142.137 1981.49 142.311 1981.79 142.371 1982.15 142.371 1982.87 142.371 1983.86 142.145 1984.73 142.106L1984.73 142.106C1983.85 144.783 1984.59 147.614 1981.22 148.801 1977.27 147.37 1972.09 148.253 1968.83 143.811 1968.4 143.202 1966.94 143.293 1965.95 143.14 1965.59 143.14 1965.22 143.231 1964.85 143.324L1963.68 146.458C1960.86 144.905 1958.82 142.715 1956.55 141.497 1954.03 140.188 1953.81 138.361 1953.81 136.689 1953.84 133.753 1954.02 133.083 1952.54 133.083 1952.11 133.083 1951.53 133.141 1950.76 133.218 1950.22 133.261 1949.64 133.433 1949.12 133.433 1948.91 133.433 1948.73 133.407 1948.55 133.34 1947.53 132.975 1946.71 131.91 1945.7 131.697 1945.58 131.669 1945.44 131.659 1945.31 131.659 1944.48 131.659 1943.55 132.112 1942.71 132.112 1942.6 132.112 1942.51 132.105 1942.41 132.091 1942.13 132.048 1941.83 132.031 1941.55 132.031 1940.16 132.031 1938.76 132.426 1937.39 132.426 1936.57 132.426 1935.77 132.287 1934.97 131.848 1934.64 132.289 1934.12 132.371 1933.57 132.371 1933.24 132.371 1932.9 132.344 1932.57 132.344 1931.72 132.344 1930.98 132.53 1930.83 133.887 1928.17 134.405 1928.13 137.51 1925.84 138.726 1924.18 139.61 1921.82 140.128 1920.88 141.678 1919.62 143.718 1917.45 144.267 1916 145.819 1915.18 146.732 1914.63 147.95 1913.92 149.106L1916.28 150.537 1912.72 160.489C1913.7 163.076 1915.89 164.142 1915.45 166.516 1915.35 166.942 1920.56 173.06 1920.88 173.09 1923.79 173.34 1926.5 174.654 1929.47 174.654 1930.1 174.654 1930.73 174.596 1931.38 174.459 1931.69 174.396 1932.05 174.365 1932.43 174.365 1934.05 174.365 1936.07 174.927 1936.68 175.89 1938.1 178.082 1940.21 178.141 1942.32 178.873L1940.49 187.607C1942.9 190.013 1941.86 193.209 1942.96 195.765 1943.7 197.5 1943.06 198.413 1942.27 199.874 1941.19 201.791 1938.49 203.739 1939.53 205.809 1940.98 208.731 1940.73 211.835 1940.73 214.606 1940.73 217.891 1943.34 220.692 1941.56 224.009 1943.06 224.314 1944.03 224.436 1944.99 224.739 1945.81 225.004 1946.6 225.117 1947.36 225.117 1950.61 225.117 1953.39 223.044 1956.39 222.032 1956.75 218.957 1959.67 218.776 1961.67 217.679 1963.62 216.583 1962.93 214.515 1963.56 213.509 1965.16 212.778 1966.36 212.232 1967.57 211.683 1969.21 210.954 1971.51 211.379 1972.06 208.761 1972.42 206.935 1974.2 205.688 1974.35 203.588 1974.53 201.426 1975.2 199.326 1975.63 197.288 1978.79 195.217 1981.58 192.477 1984.89 191.442 1990.44 189.709 1993.62 186.176 1995.89 181.247 1995.36 181.027 1994.82 180.95 1994.29 180.95 1993.01 180.95 1991.73 181.372 1990.52 181.372 1989.61 181.372 1988.73 181.128 1987.93 180.273 1990.16 177.26 1990.29 177.139 1992.68 176.833 1998.47 176.133 2003.95 174.672 2008.39 170.594 2008.55 169.803 2008.91 168.981 2008.82 168.22 2008.61 166.821 2008.33 165.42 2008 164.019L2006.38 164.872 2005.79 162.073 2004.28 164.475C2002.14 161.311 1997.92 159.515 1998.61 154.614L1998.61 154.614C2002.08 155.878 2002.03 161.365 2006.38 161.365 2006.53 161.365 2006.69 161.355 2006.86 161.341 2009.32 164.415 2012.85 165.297 2016.06 165.694L2018.23 172.419 2020.23 171.385 2018.45 189.1C2019.17 189.737 2019.98 190.134 2020.17 190.712 2020.4 191.502 2020.2 192.417 2020.2 193.451 2023.35 191.353 2019.43 188.278 2022.21 185.932 2023.83 184.533 2023.08 181.369 2025.71 179.513 2027.12 178.507 2027.79 176.345 2029.14 174.793 2035.51 145.118 2022.92 114.56 1998.13 96.9075L1995.34 98.5509 1994.4 97.1821 1990.55 100.681 1990.1 96.3896C1989.55 98.8254 1989.42 100.834 1987.64 101.93L1983.69 99.6162 1983.97 99.3725 1987.74 99.069C1987.53 98.1255 1987.56 97.6074 1987.34 97.4256 1985.01 95.5988 1982.07 94.6244 1979.96 92.4339 1979.71 92.1594 1979.38 91.976 1979 91.8541 1977.88 91.5111 1976.76 91.3087 1975.65 91.3087Z" fill="#444546" fill-rule="evenodd" transform="matrix(1.00577 0 0 1 -1775.17 412.287)"/><path d="M1875.37 154.279 1875.37 154.279C1874.94 170.505 1879.25 186.485 1887.66 199.931L1889.44 199.559C1890.95 196.22 1890.4 192.727 1890.18 189.235 1890.08 188.092 1889.6 186.238 1890.04 185.961 1892.23 184.476 1891.45 181.942 1892.26 180.117 1890.65 177.646 1889.23 175.419 1886.72 173.719 1883.41 171.525 1880.07 168.589 1880.17 163.397 1880.18 162.375 1879.76 160.738 1879.11 160.398 1877.02 159.316 1875.71 156.998 1875.6 155.329 1875.54 154.958 1875.48 154.619 1875.37 154.279Z" fill="#444546" fill-rule="evenodd" transform="matrix(1.00577 0 0 1 -1775.17 412.287)"/><path d="M1952.25 81.8614C1942.96 81.8614 1933.72 83.3437 1924.99 86.2386 1924.23 86.9403 1923.47 87.6679 1922.69 88.3407 1922.17 88.7993 1922.56 90.0661 1922.53 91.3054 1924.56 90.1739 1925.93 89.2034 1927.52 88.5564 1931.6 86.9448 1935.82 85.8589 1940.27 85.8589 1941.25 85.8589 1942.24 85.9105 1943.23 86.0229 1943.64 85.4488 1944.13 85.2893 1944.66 85.2893 1945.33 85.2893 1946.03 85.5354 1946.68 85.5354 1946.99 85.5354 1947.29 85.4746 1947.56 85.2955 1950.32 83.4895 1953.68 82.9519 1956.8 81.9813 1955.27 81.9009 1953.76 81.8614 1952.25 81.8614Z" fill="#444546" fill-rule="evenodd" transform="matrix(1.00577 0 0 1 -1775.17 412.287)"/><path d="M1908 94.457 1908 94.457C1905.81 95.9261 1903.72 97.4813 1901.7 99.1782 1904.35 98.9791 1906.44 97.7919 1907.54 95.3605 1907.69 95.0497 1907.83 94.7678 1908 94.457Z" fill="#444546" fill-rule="evenodd" transform="matrix(1.00577 0 0 1 -1775.17 412.287)"/><path d="M1895.41 105.477C1894.89 105.974 1894.35 106.512 1893.83 107.047 1894.48 106.626 1895.04 106.091 1895.41 105.477Z" fill="#444546" fill-rule="evenodd" transform="matrix(1.00577 0 0 1 -1775.17 412.287)"/><path d="M1983.25 209.378 1983.25 209.378C1981.14 210.088 1979.77 212.008 1977.61 212.008 1977.2 212.008 1976.75 211.936 1976.28 211.769 1976.21 211.76 1976.17 211.757 1976.1 211.757 1975.77 211.757 1975.46 211.904 1975.2 212.161 1973.96 215.461 1969.65 217.035 1969.4 221.394L1972.36 221.969C1974.21 220.213 1976.01 218.427 1978.16 216.914 1980.64 215.158 1983.56 213.161 1983.25 209.378Z" fill="#444546" fill-rule="evenodd" transform="matrix(1.00577 0 0 1 -1775.17 412.287)"/><path d="M1947.55 100.752 1947.55 100.752C1944.21 103.085 1949.07 104.805 1947.37 108.069L1945.51 108.566C1946.19 111.771 1948.71 110.984 1950.35 111.626L1952.08 109.673C1951.69 107.312 1948.63 105.476 1950.91 102.735 1950.39 102.361 1950.35 101.115 1949.64 101.115 1949.4 101.115 1949.1 101.244 1948.71 101.569 1948.69 101.577 1948.68 101.582 1948.66 101.582 1948.46 101.582 1947.81 100.941 1947.55 100.752Z" fill="#444546" fill-rule="evenodd" transform="matrix(1.00577 0 0 1 -1775.17 412.287)"/><path d="M1942.29 88.1584C1941.39 88.1584 1940.46 88.4988 1939.49 89.5973 1940.24 91.2532 1941.19 92.527 1942.41 92.527 1942.81 92.527 1943.25 92.3955 1943.7 92.103 1944.7 91.4681 1947.36 92.8812 1946.58 89.066L1946.58 89.066C1946.55 89.068 1946.52 89.068 1946.49 89.068 1945.14 89.068 1943.75 88.1584 1942.29 88.1584Z" fill="#444546" fill-rule="evenodd" transform="matrix(1.00577 0 0 1 -1775.17 412.287)"/><path d="M1942.32 105.477C1941.56 105.477 1941.11 105.703 1940.68 106.162 1939.93 106.985 1940 108.207 1939.49 110.196L1947.36 106.588C1944.77 105.852 1943.29 105.477 1942.32 105.477Z" fill="#444546" fill-rule="evenodd" transform="matrix(1.00577 0 0 1 -1775.17 412.287)"/><path d="M2037.88 119.644C2037.88 134.859 2025.55 147.193 2010.33 147.193 1995.1 147.193 1982.78 134.859 1982.78 119.644 1982.78 104.428 1995.1 92.0941 2010.33 92.0941 2025.55 92.0941 2037.88 104.428 2037.88 119.644Z" stroke="#383E42" stroke-width="2.44885" stroke-linejoin="round" fill="#A2C4A9" transform="matrix(1.00577 0 0 1 -1775.17 412.287)"/><path d="M12.1059 24.8754C11.4519 23.5863 11.0833 22.1279 11.0833 20.5833 11.0833 15.4927 15.0417 11.875 20.5833 11.0833 27.046 10.1601 29.8194 6.59723 31.6667 4.75 37.2083 25.3333 26.9167 30.0833 20.5833 30.0833 18.8529 30.0833 17.2306 29.6207 15.8333 28.8124" stroke="#383E42" stroke-width="2.375" stroke-linecap="round" stroke-linejoin="round" fill="none" transform="matrix(1 0 0 1.0357 227.75 513.04)"/><path d="M4.75 33.25C5.54167 28.5 8.64169 25.5479 15.8333 23.75 20.9264 22.4767 24.4837 19.2836 26.9167 15.9203" stroke="#383E42" stroke-width="2.375" stroke-linecap="round" fill="none" transform="matrix(1 0 0 1.0357 227.75 513.04)"/></g></svg>