<svg width="1752" height="1717" xmlns="http://www.w3.org/2000/svg" xmlns:xlink="http://www.w3.org/1999/xlink" xml:space="preserve" overflow="hidden"><g transform="translate(-1419 -342)"><path d="M1420 1203.5C1420 731.02 1811.08 348 2293.5 348 2775.92 348 3167 731.02 3167 1203.5 3167 1675.98 2775.92 2059 2293.5 2059 1811.08 2059 1420 1675.98 1420 1203.5Z" fill="#9EB6DA" fill-rule="evenodd"/><path d="M2545.81 515.714 2559.87 536.964C2554.38 540.731 2548.91 544.846 2542.72 548.285 2525.21 558.562 2517.32 572.278 2526.94 592.157 2533.78 606.067 2543.41 612.886 2556 612.886 2560.47 612.886 2565.31 612.036 2570.51 610.317 2578.07 607.921 2585.96 605.873 2596.94 603.13L2596.94 603.13C2590.37 622.816 2580.64 627.761 2570.28 627.761 2559.83 627.761 2548.71 622.758 2539.45 622.758 2537.73 622.758 2536.06 622.932 2534.48 623.337L2488.84 678.878 2400.32 660.719 2463.12 645.283C2482.32 605.178 2488.16 583.928 2484.04 567.816L2545.81 515.714ZM2600.72 1147.45 2600.72 1147.45C2628.85 1150.19 2631.93 1175.91 2645.31 1190.99 2626.46 1220.8 2663.51 1241.03 2659.04 1271.88 2655.62 1294.85 2675.87 1321.93 2683.76 1348.67 2689.93 1367.85 2688.9 1389.1 2679.99 1407.61L2630.23 1331.52C2649.1 1272.9 2604.83 1214.99 2600.72 1147.45ZM2552.04 447.519C2541.27 447.519 2530.49 449.181 2519.72 452.987 2498.45 460.192 2473.06 464.307 2464.14 486.234 2452.13 516.409 2423.99 516.062 2401.69 524.62 2356.73 540.731 2350.56 553.076 2369.78 595.924L2423.64 596.948 2409.24 647.003 2397.23 596.948 2362.57 662.766C2345.42 667.229 2325.84 667.557 2313.83 676.811 2291.54 694.294 2259.97 689.156 2241.1 711.778L2228.39 696.709 2211.24 720.007C2205.73 717.399 2205.63 707.373 2198.71 707.373 2196.56 707.373 2193.77 708.32 2189.96 710.754L2206.44 779.644C2195.07 789.786 2183.72 796.431 2172.85 796.431 2165.34 796.431 2158.07 793.244 2151.19 785.826 2135.06 768.69 2116.88 771.085 2101.08 769.018L2064.03 860.55C2078.07 884.408 2094.14 891.556 2111.14 891.556 2134.4 891.556 2159.45 878.149 2183.45 875.966L2193.06 845.81C2233.54 845.462 2233.54 845.462 2265.12 812.215L2284.32 829.698 2324.14 818.049 2403.74 926.368 2329.63 910.585 2329.63 910.585 2360.85 944.875C2392.43 942.132 2418.15 929.111 2431.21 895.864 2422.62 886.939 2415.4 878.709 2407.51 871.522 2389.33 856.087 2372.86 840.671 2379.38 802.961L2379.38 802.961C2395.5 827.65 2402.72 851.296 2417.47 857.806 2440.8 868.084 2442.87 884.891 2445.61 903.746 2447.33 916.071 2444.59 929.787 2448.71 941.108 2452.48 951.385 2463.12 958.92 2469.98 968.173 2471.68 970.588 2472.73 973.66 2472.73 976.751L2512.18 954.129C2502.34 936.684 2498.66 923.354 2521.81 923.354 2523.69 923.354 2525.74 923.431 2527.96 923.625 2532.43 939.388 2538.27 953.433 2538.95 967.497 2541 995.953 2563.31 1007.95 2582.87 1012.06 2584.84 1012.51 2586.79 1012.64 2588.78 1012.64 2591.61 1012.64 2594.45 1012.37 2597.35 1012.37 2603.15 1012.37 2609.17 1013.46 2615.47 1019.95 2617.44 1021.92 2620.81 1022.59 2624.99 1022.59 2633.07 1022.59 2644.15 1020.04 2653.9 1019.6L2653.9 1019.6C2643.94 1049.76 2652.18 1081.63 2614.45 1095 2570.18 1078.89 2512.18 1088.84 2475.8 1038.8 2471.01 1031.94 2454.53 1032.97 2443.54 1031.25 2439.42 1031.25 2435.32 1032.27 2431.21 1033.32L2418.15 1068.61C2386.59 1051.13 2363.59 1026.46 2338.2 1012.74 2310.06 998.001 2307.66 977.427 2307.66 958.591 2307.94 925.537 2309.83 917.984 2293.37 917.984 2288.48 917.984 2281.98 918.64 2273.36 919.51 2267.4 919.993 2260.92 921.925 2255.06 921.925 2252.82 921.925 2250.65 921.635 2248.64 920.881 2237.33 916.766 2228.06 904.77 2216.73 902.374 2215.32 902.065 2213.87 901.949 2212.4 901.949 2203.11 901.949 2192.69 907.049 2183.29 907.049 2182.17 907.049 2181.09 906.972 2180 906.817 2176.76 906.334 2173.47 906.141 2170.2 906.141 2154.71 906.141 2139.08 910.585 2123.67 910.585 2114.56 910.585 2105.53 909.02 2096.63 904.074 2092.88 909.039 2087.1 909.966 2080.87 909.966 2077.21 909.966 2073.42 909.657 2069.79 909.657 2060.33 909.657 2051.98 911.763 2050.29 927.044 2020.45 932.878 2020.11 967.845 1994.36 981.542 1975.84 991.491 1949.42 997.325 1938.78 1014.79 1924.7 1037.76 1900.35 1043.94 1884.23 1061.42 1874.96 1071.7 1868.77 1085.42 1860.88 1098.44L1887.3 1114.55 1847.5 1226.64C1858.48 1255.77 1882.85 1267.76 1878.04 1294.5 1877.01 1299.31 1935.34 1368.2 1938.78 1368.55 1971.41 1371.37 2001.69 1386.17 2035.05 1386.17 2042.04 1386.17 2049.17 1385.51 2056.48 1383.97 2059.98 1383.25 2063.99 1382.9 2068.22 1382.9 2086.38 1382.9 2108.89 1389.24 2115.84 1400.08 2131.64 1424.77 2155.31 1425.44 2178.98 1433.67L2158.4 1532.04C2185.5 1559.13 2173.83 1595.12 2186.19 1623.92 2194.43 1643.45 2187.22 1653.73 2178.3 1670.19 2166.29 1691.79 2136.08 1713.71 2147.77 1737.03 2163.88 1769.93 2161.15 1804.9 2161.15 1836.1 2161.15 1873.11 2190.31 1904.64 2170.41 1942 2187.22 1945.44 2198.2 1946.81 2208.84 1950.23 2218.04 1953.21 2226.84 1954.48 2235.33 1954.48 2271.85 1954.48 2302.81 1931.12 2336.48 1919.73 2340.6 1885.11 2373.21 1883.06 2395.5 1870.72 2417.47 1858.37 2409.58 1835.07 2416.78 1823.75 2434.63 1815.52 2448.01 1809.36 2461.74 1803.18 2479.92 1794.97 2505.66 1799.76 2511.83 1770.28 2515.95 1749.7 2535.85 1735.66 2537.57 1712.01 2539.64 1687.67 2547.18 1664.03 2551.98 1641.06 2587.33 1617.74 2618.55 1586.89 2655.62 1575.24 2717.72 1555.71 2753.42 1515.93 2778.81 1460.41 2772.84 1457.94 2766.78 1457.07 2760.73 1457.07 2746.54 1457.07 2732.28 1461.82 2718.74 1461.82 2708.48 1461.82 2698.65 1459.08 2689.58 1449.44 2714.64 1415.51 2716.02 1414.14 2742.78 1410.7 2807.63 1402.82 2869.05 1386.36 2918.81 1340.44 2920.53 1331.52 2924.65 1322.26 2923.61 1313.7 2921.21 1297.94 2918.12 1282.16 2914.34 1266.39L2896.17 1275.99 2889.65 1244.47 2872.82 1271.53C2848.8 1235.89 2801.46 1215.66 2809.35 1160.47L2809.35 1160.47C2848.09 1174.71 2847.53 1236.49 2896.17 1236.49 2897.93 1236.49 2899.76 1236.39 2901.66 1236.24 2929.1 1270.86 2968.57 1280.79 3004.6 1285.25L3028.97 1361 3051.27 1349.35 3031.37 1548.85C3039.61 1556.04 3048.52 1560.5 3050.57 1567.01 3053.32 1575.91 3050.92 1586.21 3050.92 1597.86 3086.27 1574.21 3042.35 1539.6 3073.57 1513.19 3091.77 1497.42 3083.18 1461.78 3112.69 1440.88 3128.47 1429.56 3136.03 1405.22 3151.12 1387.73 3222.5 1053.52 3081.46 709.382 2803.86 510.575L2772.62 529.082 2761.99 513.666 2719.09 553.076 2713.95 504.741C2707.78 532.173 2706.41 554.795 2686.51 567.14L2642.24 541.079 2645.31 538.336 2687.53 534.916C2685.13 524.291 2685.46 518.457 2683.06 516.409 2656.99 495.835 2624.04 484.862 2600.37 460.192 2597.62 457.101 2593.85 455.034 2589.73 453.663 2577.16 449.799 2564.61 447.519 2552.04 447.519Z" stroke="#444546" stroke-width="3.4375" stroke-linejoin="round" stroke-miterlimit="10" fill="#649D6F" fill-rule="evenodd"/><path d="M1421.64 1163.52 1421.64 1163.52C1416.5 1343.36 1468.23 1520.47 1569.33 1669.5L1590.57 1665.39C1608.72 1628.38 1602.22 1589.67 1599.47 1550.95 1598.45 1538.29 1592.62 1517.73 1597.75 1514.66 1624.15 1498.21 1614.9 1470.12 1624.48 1449.9 1605.3 1422.5 1588.18 1397.83 1558.01 1378.99 1518.27 1354.66 1478.18 1322.13 1479.2 1264.57 1479.55 1253.26 1474.41 1235.11 1466.54 1231.35 1441.51 1219.36 1425.75 1193.66 1424.38 1175.16 1423.7 1171.05 1423.01 1167.28 1421.64 1163.52Z" stroke="#444546" stroke-width="3.4375" stroke-linejoin="round" stroke-miterlimit="10" fill="#649D6F" fill-rule="evenodd"/><path d="M2282.79 343.5C2177.44 343.5 2072.66 362.333 1973.46 399.11 1964.87 408.025 1956.29 417.267 1947.35 425.815 1941.52 431.643 1945.97 447.735 1945.64 463.481 1968.64 449.105 1984.11 436.775 2002.31 428.555 2048.46 408.083 2096.43 394.286 2146.85 394.286 2157.98 394.286 2169.23 394.942 2180.59 396.37 2185.16 389.076 2190.77 387.05 2196.78 387.05 2204.23 387.05 2212.26 390.176 2219.58 390.176 2223.18 390.176 2226.61 389.404 2229.71 387.128 2260.97 364.185 2299.11 357.354 2334.48 345.024 2317.25 344.002 2300.02 343.5 2282.79 343.5Z" stroke="#444546" stroke-width="3.4375" stroke-linejoin="round" stroke-miterlimit="10" fill="#649D6F" fill-rule="evenodd"/><path d="M1796.5 489.52 1796.5 489.52C1770.13 507.561 1744.8 526.66 1720.52 547.5 1752.35 545.054 1777.67 530.476 1791.02 500.615 1792.72 496.799 1794.44 493.335 1796.5 489.52Z" stroke="#444546" stroke-width="3.4375" stroke-linejoin="round" stroke-miterlimit="10" fill="#649D6F" fill-rule="evenodd"/><path d="M1654.5 608.519C1650.17 612.936 1645.83 617.718 1641.52 622.481 1646.83 618.736 1651.5 613.973 1654.5 608.519Z" stroke="#444546" stroke-width="3.4375" stroke-linejoin="round" stroke-miterlimit="10" fill="#649D6F" fill-rule="evenodd"/><path d="M2631.07 1774.52 2631.07 1774.52C2608.68 1782.58 2594.02 1804.39 2571.12 1804.39 2566.68 1804.39 2561.93 1803.57 2556.76 1801.67 2556.16 1801.56 2555.57 1801.52 2554.97 1801.52 2551.48 1801.52 2548.1 1803.2 2545.47 1806.13 2532.12 1843.59 2486.24 1861.47 2483.5 1910.95L2515.01 1917.48C2534.86 1897.55 2554.02 1877.27 2576.96 1860.09 2603.34 1840.16 2634.48 1817.48 2631.07 1774.52Z" stroke="#444546" stroke-width="3.4375" stroke-linejoin="round" stroke-miterlimit="10" fill="#649D6F" fill-rule="evenodd"/><path d="M2229.82 562.5 2229.82 562.5C2189.5 589.808 2248.26 609.942 2227.78 648.154L2205.23 653.962C2213.43 691.481 2243.84 682.269 2263.65 689.789L2284.48 666.923C2279.71 639.289 2242.8 617.788 2270.48 585.711 2264.26 581.327 2263.55 566.75 2254.96 566.75 2252.21 566.75 2248.65 568.25 2243.84 572.058 2243.7 572.154 2243.55 572.211 2243.33 572.211 2240.85 572.211 2233 564.711 2229.82 562.5Z" stroke="#444546" stroke-width="3.4375" stroke-linejoin="round" stroke-miterlimit="10" fill="#649D6F" fill-rule="evenodd"/><path d="M2182.85 425.5C2172.8 425.5 2162.39 428.743 2151.5 439.211 2159.89 454.988 2170.47 467.125 2184.28 467.125 2188.71 467.125 2193.49 465.873 2198.62 463.085 2209.69 457.036 2239.48 470.5 2230.83 434.147L2230.83 434.147C2230.48 434.166 2230.13 434.166 2229.78 434.166 2214.73 434.166 2199.27 425.5 2182.85 425.5Z" stroke="#444546" stroke-width="3.4375" stroke-linejoin="round" stroke-miterlimit="10" fill="#649D6F" fill-rule="evenodd"/><path d="M2176.36 608.519C2169.44 608.519 2165.3 611.245 2161.42 616.792 2154.59 626.727 2155.29 641.475 2150.5 665.481L2222.48 621.933C2198.85 613.042 2185.3 608.519 2176.36 608.519Z" stroke="#444546" stroke-width="3.4375" stroke-linejoin="round" stroke-miterlimit="10" fill="#649D6F" fill-rule="evenodd"/></g></svg>