<svg width="1847" height="1792" xmlns="http://www.w3.org/2000/svg" xmlns:xlink="http://www.w3.org/1999/xlink" xml:space="preserve" overflow="hidden"><defs><clipPath id="clip0"><rect x="1384" y="312" width="1847" height="1792"/></clipPath></defs><g clip-path="url(#clip0)" transform="translate(-1384 -312)"><path d="M1384 1208.5C1384 713.929 1797.02 313 2306.5 313 2815.98 313 3229 713.929 3229 1208.5 3229 1703.07 2815.98 2104 2306.5 2104 1797.02 2104 1384 1703.07 1384 1208.5Z" fill="#EBE6E6" fill-rule="evenodd"/><path d="M2570.69 495.817 2585.5 518.196C2579.72 522.163 2573.96 526.496 2567.44 530.118 2548.99 540.941 2540.68 555.385 2550.81 576.32 2558.02 590.969 2568.16 598.15 2581.43 598.15 2586.14 598.15 2591.24 597.255 2596.71 595.444 2604.68 592.921 2612.99 590.765 2624.56 587.876L2624.56 587.876C2617.64 608.607 2607.39 613.815 2596.47 613.815 2585.46 613.815 2573.75 608.546 2563.99 608.546 2562.18 608.546 2560.42 608.729 2558.76 609.156L2510.67 667.647 2417.41 648.523 2483.58 632.268C2503.8 590.032 2509.96 567.654 2505.62 550.686L2570.69 495.817ZM2628.54 1161.11 2628.54 1161.11C2658.18 1163.99 2661.42 1191.08 2675.52 1206.96 2655.66 1238.35 2694.69 1259.66 2689.98 1292.15 2686.38 1316.33 2707.71 1344.85 2716.03 1373.01 2722.53 1393.21 2721.44 1415.59 2712.06 1435.08L2659.63 1354.95C2679.51 1293.22 2632.87 1232.23 2628.54 1161.11ZM2577.26 424C2565.91 424 2554.55 425.75 2543.21 429.758 2520.8 437.346 2494.05 441.68 2484.65 464.771 2472 496.549 2442.35 496.183 2418.86 505.196 2371.49 522.163 2364.99 535.163 2385.24 580.287L2441.98 581.365 2426.81 634.079 2414.16 581.365 2377.64 650.679C2359.57 655.379 2338.95 655.725 2326.29 665.47 2302.81 683.882 2269.55 678.471 2249.67 702.294L2236.28 686.425 2218.21 710.96C2212.41 708.214 2212.3 697.655 2205.01 697.655 2202.75 697.655 2199.81 698.653 2195.79 701.216L2213.16 773.765C2201.18 784.446 2189.22 791.444 2177.77 791.444 2169.85 791.444 2162.2 788.087 2154.95 780.275 2137.95 762.229 2118.8 764.751 2102.15 762.575L2063.12 858.968C2077.91 884.093 2094.84 891.621 2112.75 891.621 2137.26 891.621 2163.65 877.502 2188.93 875.203L2199.06 843.445C2241.71 843.079 2241.71 843.079 2274.98 808.066L2295.2 826.477 2337.16 814.21 2421.02 928.282 2342.94 911.661 2342.94 911.661 2375.83 947.772C2409.1 944.883 2436.2 931.171 2449.96 896.158 2440.91 886.759 2433.3 878.091 2424.99 870.523 2405.84 854.268 2388.48 838.033 2395.35 798.32L2395.35 798.32C2412.34 824.321 2419.94 849.222 2435.48 856.078 2460.06 866.902 2462.24 884.602 2465.13 904.458 2466.94 917.438 2464.05 931.883 2468.39 943.805 2472.37 954.628 2483.58 962.563 2490.8 972.307 2492.59 974.85 2493.7 978.086 2493.7 981.341L2535.26 957.517C2524.9 939.146 2521.02 925.108 2545.41 925.108 2547.39 925.108 2549.55 925.189 2551.89 925.393 2556.6 941.993 2562.75 956.784 2563.46 971.595 2565.62 1001.56 2589.13 1014.2 2609.74 1018.53 2611.81 1019 2613.87 1019.14 2615.96 1019.14 2618.94 1019.14 2621.94 1018.85 2624.99 1018.85 2631.1 1018.85 2637.44 1020 2644.08 1026.83 2646.16 1028.91 2649.71 1029.61 2654.11 1029.61 2662.62 1029.61 2674.3 1026.93 2684.57 1026.47L2684.57 1026.47C2674.08 1058.23 2682.76 1091.79 2643.01 1105.87 2596.37 1088.9 2535.26 1099.38 2496.93 1046.69 2491.89 1039.46 2474.53 1040.55 2462.95 1038.73 2458.61 1038.73 2454.29 1039.81 2449.96 1040.91L2436.2 1078.08C2402.95 1059.67 2378.72 1033.69 2351.97 1019.24 2322.32 1003.72 2319.79 982.053 2319.79 962.216 2320.09 927.407 2322.08 919.453 2304.74 919.453 2299.59 919.453 2292.74 920.143 2283.66 921.06 2277.38 921.568 2270.55 923.603 2264.38 923.603 2262.02 923.603 2259.73 923.297 2257.61 922.503 2245.7 918.17 2235.93 905.537 2224 903.014 2222.51 902.688 2220.98 902.566 2219.43 902.566 2209.65 902.566 2198.67 907.937 2188.77 907.937 2187.59 907.937 2186.45 907.856 2185.3 907.693 2181.89 907.184 2178.42 906.981 2174.97 906.981 2158.66 906.981 2142.19 911.661 2125.95 911.661 2116.36 911.661 2106.84 910.013 2097.47 904.804 2093.52 910.032 2087.43 911.009 2080.86 911.009 2077.01 911.009 2073.01 910.683 2069.19 910.683 2059.22 910.683 2050.43 912.901 2048.65 928.994 2017.21 935.138 2016.85 971.962 1989.72 986.386 1970.21 996.864 1942.38 1003.01 1931.17 1021.4 1916.33 1045.59 1890.68 1052.1 1873.7 1070.51 1863.93 1081.33 1857.41 1095.78 1849.1 1109.49L1876.93 1126.46 1835 1244.5C1846.57 1275.18 1872.24 1287.81 1867.17 1315.97 1866.09 1321.03 1927.54 1393.58 1931.17 1393.95 1965.54 1396.92 1997.44 1412.51 2032.59 1412.51 2039.95 1412.51 2047.47 1411.81 2055.17 1410.19 2058.85 1409.43 2063.08 1409.06 2067.54 1409.06 2086.67 1409.06 2110.38 1415.74 2117.7 1427.15 2134.35 1453.16 2159.29 1453.86 2184.22 1462.53L2162.54 1566.12C2191.09 1594.65 2178.8 1632.55 2191.82 1662.88 2200.5 1683.45 2192.91 1694.28 2183.51 1711.61 2170.86 1734.36 2139.03 1757.44 2151.34 1782 2168.32 1816.65 2165.44 1853.48 2165.44 1886.33 2165.44 1925.31 2196.16 1958.51 2175.2 1997.86 2192.91 2001.48 2204.47 2002.92 2215.68 2006.52 2225.38 2009.66 2234.65 2011 2243.59 2011 2282.07 2011 2314.68 1986.4 2350.16 1974.4 2354.5 1937.95 2388.85 1935.79 2412.34 1922.79 2435.48 1909.79 2427.17 1885.25 2434.76 1873.33L2482.12 1851.66C2501.27 1843.02 2528.39 1848.06 2534.89 1817.02 2539.23 1795.34 2560.2 1780.56 2562.01 1755.65 2564.19 1730.02 2572.14 1705.12 2577.19 1680.93 2614.44 1656.37 2647.33 1623.89 2686.38 1611.62 2751.81 1591.05 2789.42 1549.16 2816.17 1490.69 2809.88 1488.09 2803.49 1487.17 2797.12 1487.17 2782.17 1487.17 2767.14 1492.17 2752.88 1492.17 2742.07 1492.17 2731.71 1489.29 2722.16 1479.14 2748.56 1443.4 2750.01 1441.96 2778.21 1438.34 2846.53 1430.04 2911.24 1412.71 2963.66 1364.35 2965.47 1354.95 2969.81 1345.2 2968.72 1336.19 2966.19 1319.59 2962.93 1302.97 2958.95 1286.36L2939.81 1296.47 2932.94 1263.28 2915.21 1291.78C2889.9 1254.24 2840.03 1232.94 2848.34 1174.82L2848.34 1174.82C2889.15 1189.81 2888.56 1254.88 2939.81 1254.88 2941.66 1254.88 2943.59 1254.77 2945.59 1254.61 2974.5 1291.07 3016.08 1301.53 3054.04 1306.23L3079.72 1386 3103.21 1373.73 3082.25 1583.83C3090.93 1591.4 3100.31 1596.09 3102.47 1602.95 3105.37 1612.32 3102.84 1623.17 3102.84 1635.44 3140.08 1610.53 3093.81 1574.08 3126.7 1546.27 3145.88 1529.66 3136.83 1492.13 3167.92 1470.12 3184.54 1458.2 3192.51 1432.57 3208.41 1414.15 3283.61 1062.19 3150.49 694.615 2847.71 483.53L2809.64 509.895 2798.45 493.66 2753.25 535.163 2747.83 484.261C2741.33 513.15 2739.89 536.974 2718.92 549.974L2672.28 522.529 2675.52 519.641 2720 516.039C2717.47 504.849 2717.82 498.706 2715.29 496.549 2687.82 474.882 2653.11 463.326 2628.17 437.346 2625.28 434.091 2621.3 431.914 2616.96 430.47 2603.72 426.401 2590.5 424 2577.26 424Z" stroke="#444546" stroke-width="3.61506" stroke-linejoin="round" stroke-miterlimit="10" fill="#649D6F" fill-rule="evenodd"/><path d="M1386.86 1177.88 1386.86 1177.88C1381.44 1367.32 1435.92 1553.89 1542.4 1710.88L1564.77 1706.55C1583.89 1667.56 1577.04 1626.78 1574.15 1586 1573.07 1572.66 1566.93 1551 1572.34 1547.77 1600.14 1530.44 1590.4 1500.85 1600.49 1479.55 1580.29 1450.69 1562.26 1424.7 1530.48 1404.85 1488.63 1379.22 1446.4 1344.96 1447.48 1284.32 1447.85 1272.41 1442.43 1253.29 1434.14 1249.33 1407.78 1236.7 1391.18 1209.63 1389.74 1190.14 1389.03 1185.81 1388.3 1181.84 1386.86 1177.88Z" stroke="#444546" stroke-width="3.61506" stroke-linejoin="round" stroke-miterlimit="10" fill="#649D6F" fill-rule="evenodd"/><path d="M2293.17 314.877C2182.46 314.877 2072.35 334.655 1968.11 373.277 1959.08 382.639 1950.06 392.345 1940.67 401.322 1934.54 407.442 1939.22 424.341 1938.87 440.877 1963.04 425.78 1979.3 412.831 1998.42 404.199 2046.92 382.7 2097.33 368.211 2150.32 368.211 2162.01 368.211 2173.83 368.9 2185.77 370.399 2190.57 362.739 2196.47 360.612 2202.79 360.612 2210.61 360.612 2219.05 363.894 2226.75 363.894 2230.53 363.894 2234.13 363.084 2237.39 360.693 2270.24 336.6 2310.32 329.426 2347.49 316.477 2329.38 315.404 2311.28 314.877 2293.17 314.877Z" stroke="#444546" stroke-width="3.61506" stroke-linejoin="round" stroke-miterlimit="10" fill="#649D6F" fill-rule="evenodd"/><path d="M1781.49 467.877 1781.49 467.877C1753.72 486.857 1727.05 506.951 1701.49 528.877 1735 526.303 1761.66 510.966 1775.72 479.549 1777.51 475.535 1779.32 471.89 1781.49 467.877Z" stroke="#444546" stroke-width="3.61506" stroke-linejoin="round" stroke-miterlimit="10" fill="#649D6F" fill-rule="evenodd"/><path d="M1631.51 593.883C1627.18 598.312 1622.83 603.107 1618.51 607.883 1623.83 604.128 1628.51 599.351 1631.51 593.883Z" stroke="#444546" stroke-width="3.61506" stroke-linejoin="round" stroke-miterlimit="10" fill="#649D6F" fill-rule="evenodd"/><path d="M2660.22 1821.88 2660.22 1821.88C2636.59 1830.33 2621.12 1853.22 2596.95 1853.22 2592.27 1853.22 2587.25 1852.36 2581.8 1850.36 2581.16 1850.25 2580.54 1850.21 2579.91 1850.21 2576.23 1850.21 2572.66 1851.97 2569.88 1855.04 2555.8 1894.35 2507.38 1913.11 2504.49 1965.03L2537.74 1971.88C2558.69 1950.97 2578.91 1929.69 2603.11 1911.66 2630.95 1890.75 2663.81 1866.95 2660.22 1821.88Z" stroke="#444546" stroke-width="3.61506" stroke-linejoin="round" stroke-miterlimit="10" fill="#649D6F" fill-rule="evenodd"/><path d="M2237.55 544.876 2237.55 544.876C2194.81 573.624 2257.09 594.82 2235.39 635.047L2211.48 641.161C2220.18 680.658 2252.41 670.96 2273.41 678.877L2295.48 654.805C2290.43 625.714 2251.31 603.079 2280.65 569.311 2274.05 564.696 2273.3 549.351 2264.2 549.351 2261.28 549.351 2257.51 550.93 2252.41 554.938 2252.26 555.039 2252.1 555.099 2251.87 555.099 2249.24 555.099 2240.92 547.204 2237.55 544.876Z" stroke="#444546" stroke-width="3.61506" stroke-linejoin="round" stroke-miterlimit="10" fill="#649D6F" fill-rule="evenodd"/><path d="M2188.43 400.876C2177.87 400.876 2166.93 404.304 2155.49 415.37 2164.31 432.047 2175.42 444.876 2189.94 444.876 2194.59 444.876 2199.62 443.553 2205.01 440.606 2216.64 434.212 2247.95 448.444 2238.86 410.017L2238.86 410.017C2238.49 410.037 2238.12 410.037 2237.75 410.037 2221.94 410.037 2205.69 400.876 2188.43 400.876Z" stroke="#444546" stroke-width="3.61506" stroke-linejoin="round" stroke-miterlimit="10" fill="#649D6F" fill-rule="evenodd"/><path d="M2181.44 593.877C2174.23 593.877 2169.91 596.748 2165.87 602.591 2158.76 613.056 2159.48 628.59 2154.49 653.877L2229.49 608.006C2204.87 598.641 2190.75 593.877 2181.44 593.877Z" stroke="#444546" stroke-width="3.61506" stroke-linejoin="round" stroke-miterlimit="10" fill="#649D6F" fill-rule="evenodd"/></g></svg>